<?xml version="1.0" encoding="UTF-8" standalone="no"?>
<!-- Created with Inkscape (http://www.inkscape.org/) -->

<svg
   width="80mm"
   height="80mm"
   viewBox="0 0 80 79.999996"
   version="1.1"
   id="svg1"
   inkscape:export-filename="workmanlike.png"
   inkscape:export-xdpi="342.89999"
   inkscape:export-ydpi="342.89999"
   inkscape:version="1.3.2 (091e20ef0f, 2023-11-25, custom)"
   sodipodi:docname="logo.svg"
   xmlns:inkscape="http://www.inkscape.org/namespaces/inkscape"
   xmlns:sodipodi="http://sodipodi.sourceforge.net/DTD/sodipodi-0.dtd"
   xmlns="http://www.w3.org/2000/svg"
   xmlns:svg="http://www.w3.org/2000/svg">
  <sodipodi:namedview
     id="namedview1"
     pagecolor="#ffffff"
     bordercolor="#000000"
     borderopacity="0.25"
     inkscape:showpageshadow="2"
     inkscape:pageopacity="0.0"
     inkscape:pagecheckerboard="false"
     inkscape:deskcolor="#d1d1d1"
     inkscape:document-units="mm"
     inkscape:export-bgcolor="#ffffffff"
     inkscape:zoom="1.4071922"
     inkscape:cx="-83.144293"
     inkscape:cy="214.61176"
     inkscape:window-width="2719"
     inkscape:window-height="1478"
     inkscape:window-x="0"
     inkscape:window-y="0"
     inkscape:window-maximized="0"
     inkscape:current-layer="layer4" />
  <defs
     id="defs1" />
  <g
     inkscape:label="Background"
     inkscape:groupmode="layer"
     id="layer1">
    <rect
       style="fill:#1e1c1a;fill-opacity:1;stroke:#7e7c7a;stroke-width:0.5;stroke-linecap:square;stroke-dasharray:none;stroke-opacity:1"
       id="rect7"
       width="80.5"
       height="40.25"
       x="-0.25"
       y="40" />
  </g>
  <g
     inkscape:groupmode="layer"
     id="layer2"
     inkscape:label="Color Line"
     style="display:none">
    <rect
       style="fill:#6393d2;fill-opacity:1;stroke-width:0.499999;stroke-linecap:square"
       id="rect8"
       width="10"
       height="10"
       x="22.37501"
       y="40.712502" />
    <rect
       style="fill:#aad6ff;fill-opacity:1;stroke-width:0.499999;stroke-linecap:square"
       id="rect9"
       width="10"
       height="10"
       x="22.37501"
       y="79.287338" />
    <rect
       style="fill:#0e558e;fill-opacity:1;stroke-width:0.499999;stroke-linecap:square"
       id="rect10"
       width="10"
       height="10"
       x="22.37501"
       y="30.7125" />
    <rect
       style="fill:#a881c9;fill-opacity:1;stroke-width:0.499999;stroke-linecap:square"
       id="rect11"
       width="10"
       height="10"
       x="38.250008"
       y="40.712502" />
    <rect
       style="fill:#eec4ff;fill-opacity:1;stroke-width:0.499999;stroke-linecap:square"
       id="rect12"
       width="10"
       height="10"
       x="38.250008"
       y="79.287338" />
    <rect
       style="fill:#664385;fill-opacity:1;stroke-width:0.499999;stroke-linecap:square"
       id="rect13"
       width="10"
       height="10"
       x="38.250008"
       y="30.7125" />
    <rect
       style="fill:#c8789c;fill-opacity:1;stroke-width:0.499999;stroke-linecap:square"
       id="rect14"
       width="10"
       height="10"
       x="54.125011"
       y="40.712502" />
    <rect
       style="fill:#ffbbe1;fill-opacity:1;stroke-width:0.499999;stroke-linecap:square"
       id="rect15"
       width="10"
       height="10"
       x="54.125011"
       y="79.287338" />
    <rect
       style="fill:#83395d;fill-opacity:1;stroke-width:0.499999;stroke-linecap:square"
       id="rect16"
       width="10"
       height="10"
       x="54.125011"
       y="30.7125" />
    <rect
       style="fill:#cf7a6b;fill-opacity:1;stroke-width:0.499999;stroke-linecap:square"
       id="rect17"
       width="10"
       height="10"
       x="70.000015"
       y="40.712502" />
    <rect
       style="fill:#ffbdac;fill-opacity:1;stroke-width:0.499999;stroke-linecap:square"
       id="rect18"
       width="10"
       height="10"
       x="70.000015"
       y="79.287338" />
    <rect
       style="fill:#873b30;fill-opacity:1;stroke-width:0.499999;stroke-linecap:square"
       id="rect19"
       width="10"
       height="10"
       x="70.000015"
       y="30.7125" />
    <rect
       style="fill:#b88846;fill-opacity:1;stroke-width:0.499999;stroke-linecap:square"
       id="rect20"
       width="10"
       height="10"
       x="85.875008"
       y="40.712502" />
    <rect
       style="fill:#ffcb85;fill-opacity:1;stroke-width:0.499999;stroke-linecap:square"
       id="rect21"
       width="10"
       height="10"
       x="85.875008"
       y="79.287338" />
    <rect
       style="fill:#714a06;fill-opacity:1;stroke-width:0.499999;stroke-linecap:square"
       id="rect22"
       width="10"
       height="10"
       x="85.875008"
       y="30.7125" />
    <rect
       style="fill:#6d9e46;fill-opacity:1;stroke-width:0.499999;stroke-linecap:square"
       id="rect23"
       width="10"
       height="10"
       x="101.75"
       y="40.712502" />
    <rect
       style="fill:#b0e386;fill-opacity:1;stroke-width:0.499999;stroke-linecap:square"
       id="rect24"
       width="10"
       height="10"
       x="101.75"
       y="79.287338" />
    <rect
       style="fill:#2c5e03;fill-opacity:1;stroke-width:0.499999;stroke-linecap:square"
       id="rect25"
       width="10"
       height="10"
       x="101.75"
       y="30.7125" />
    <rect
       style="fill:#579c96;fill-opacity:1;stroke-width:0.499999;stroke-linecap:square"
       id="rect26"
       width="10"
       height="10"
       x="117.62499"
       y="40.712502" />
    <rect
       style="fill:#9be1da;fill-opacity:1;stroke-width:0.499999;stroke-linecap:square"
       id="rect27"
       width="10"
       height="10"
       x="117.62499"
       y="79.287338" />
    <rect
       style="fill:#0d5c58;fill-opacity:1;stroke-width:0.499999;stroke-linecap:square"
       id="rect28"
       width="10"
       height="10"
       x="117.62499"
       y="30.7125" />
    <rect
       style="fill:#6393d2;fill-opacity:1;stroke-width:0.499999;stroke-linecap:square"
       id="rect31"
       width="10"
       height="10"
       x="22.37501"
       y="69.287331" />
    <rect
       style="fill:#a881c9;fill-opacity:1;stroke-width:0.499999;stroke-linecap:square"
       id="rect32"
       width="10"
       height="10"
       x="38.250008"
       y="69.287331" />
    <rect
       style="fill:#c8789c;fill-opacity:1;stroke-width:0.499999;stroke-linecap:square"
       id="rect33"
       width="10"
       height="10"
       x="54.125011"
       y="69.287331" />
    <rect
       style="fill:#cf7a6b;fill-opacity:1;stroke-width:0.499999;stroke-linecap:square"
       id="rect34"
       width="10"
       height="10"
       x="70.000015"
       y="69.287331" />
    <rect
       style="fill:#b88846;fill-opacity:1;stroke-width:0.499999;stroke-linecap:square"
       id="rect35"
       width="10"
       height="10"
       x="85.875008"
       y="69.287331" />
    <rect
       style="fill:#6d9e46;fill-opacity:1;stroke-width:0.499999;stroke-linecap:square"
       id="rect36"
       width="10"
       height="10"
       x="101.75"
       y="69.287331" />
    <rect
       style="fill:#579c96;fill-opacity:1;stroke-width:0.499999;stroke-linecap:square"
       id="rect37"
       width="10"
       height="10"
       x="117.62499"
       y="69.287331" />
  </g>
  <g
     inkscape:groupmode="layer"
     id="layer3"
     inkscape:label="Color Circle"
     style="display:none">
    <path
       id="path46"
       style="fill:#0d5c58;fill-opacity:1;stroke-width:0.499999;stroke-linecap:square"
       inkscape:transform-center-x="-15.692664"
       inkscape:transform-center-y="-8.8891658"
       d="m 98.538688,55.31807 7.846552,-1.561145 a 32,32 0 0 0 -4.77801,-11.535213 l -6.651785,4.44469 a 24,24 0 0 1 3.583243,8.651668 z" />
    <path
       id="path93"
       style="fill:#579c96;fill-opacity:1;stroke-width:0.499999;stroke-linecap:square"
       inkscape:transform-center-x="-15.692664"
       inkscape:transform-center-y="-8.8891658"
       d="m 98.538688,55.31807 a 24,24 0 0 0 -3.583243,-8.651668 l -6.651791,4.44469 a 16,16 0 0 1 2.389001,5.767607 z" />
    <path
       id="path47"
       style="fill:#6d9e46;fill-opacity:1;stroke-width:0.499999;stroke-linecap:square"
       inkscape:transform-center-x="-13.303587"
       inkscape:transform-center-y="-13.303593"
       d="m 94.955446,46.666404 a 24,24 0 0 0 -6.62182,-6.62182 l -4.444689,6.65179 a 16,16 0 0 1 4.414717,4.414718 z" />
    <path
       id="path92"
       style="fill:#2c5e03;fill-opacity:1;stroke-width:0.499999;stroke-linecap:square"
       inkscape:transform-center-x="-13.303587"
       inkscape:transform-center-y="-13.303593"
       d="m 92.778316,33.392793 -4.44469,6.651791 a 24,24 0 0 1 6.62182,6.62182 l 6.651784,-4.444695 a 32,32 0 0 0 -8.828914,-8.828916 z" />
    <path
       id="path48"
       style="fill:#b88846;fill-opacity:1;stroke-width:0.499999;stroke-linecap:square"
       inkscape:transform-center-x="-8.8891624"
       inkscape:transform-center-y="-15.692664"
       d="M 88.333626,40.044584 A 24,24 0 0 0 79.681958,36.46134 l -1.560628,7.846033 a 16,16 0 0 1 5.767606,2.389002 z" />
    <path
       id="path91"
       style="fill:#714a06;fill-opacity:1;stroke-width:0.499999;stroke-linecap:square"
       inkscape:transform-center-x="-8.8891624"
       inkscape:transform-center-y="-15.692664"
       d="m 81.242587,28.614791 -1.560629,7.846549 a 24,24 0 0 1 8.651668,3.583244 l 4.44469,-6.65179 A 32,32 0 0 0 81.242587,28.614791 Z" />
    <path
       id="path49"
       style="fill:#cf7a6b;fill-opacity:1;stroke-width:0.499999;stroke-linecap:square"
       inkscape:transform-center-x="-1.2992654e-06"
       inkscape:transform-center-y="-16.000107"
       d="m 79.681958,36.46134 a 24,24 0 0 0 -4.681885,-0.46147 24,24 0 0 0 -4.671032,0.517798 l 1.55701,7.826912 a 16,16 0 0 1 3.114022,-0.344682 16,16 0 0 1 3.121257,0.307475 z" />
    <path
       id="path90"
       style="fill:#873b30;fill-opacity:1;stroke-width:0.499999;stroke-linecap:square"
       inkscape:transform-center-x="-1.2992654e-06"
       inkscape:transform-center-y="-16.000107"
       d="m 75.628459,28.006042 a 32,32 0 0 0 -1.88464,0.0186 32,32 0 0 0 -4.986776,0.590145 l 1.571998,7.902877 a 24,24 0 0 1 4.671032,-0.517798 24,24 0 0 1 4.681885,0.46147 l 1.560628,-7.846549 a 32,32 0 0 0 -5.614127,-0.608749 z" />
    <path
       id="path50"
       style="fill:#c8789c;fill-opacity:1;stroke-width:0.499999;stroke-linecap:square"
       inkscape:transform-center-x="8.8891634"
       inkscape:transform-center-y="-15.692664"
       d="m 70.329041,36.517667 a 24,24 0 0 0 -8.647533,3.54914 l 4.439521,6.644555 a 16,16 0 0 1 5.765024,-2.366779 z" />
    <path
       id="path89"
       style="fill:#83395d;fill-opacity:1;stroke-width:0.499999;stroke-linecap:square"
       inkscape:transform-center-x="8.8891634"
       inkscape:transform-center-y="-15.692664"
       d="m 68.757044,28.614791 a 32,32 0 0 0 -11.535213,4.778003 l 4.459676,6.674011 a 24,24 0 0 1 8.647533,-3.54914 z" />
    <path
       id="path51"
       style="fill:#a881c9;fill-opacity:1;stroke-width:0.499999;stroke-linecap:square"
       inkscape:transform-center-x="13.303591"
       inkscape:transform-center-y="-13.303592"
       d="m 61.68099,40.067322 a 24,24 0 0 0 -6.614067,6.614066 l 6.644556,4.439523 a 16,16 0 0 1 4.409033,-4.40955 z" />
    <path
       id="path88"
       style="fill:#664385;fill-opacity:1;stroke-width:0.499999;stroke-linecap:square"
       inkscape:transform-center-x="13.303591"
       inkscape:transform-center-y="-13.303592"
       d="m 57.221314,33.392794 a 32,32 0 0 0 -8.828402,8.828918 l 6.674011,4.459676 a 24,24 0 0 1 6.614067,-6.614066 z" />
    <path
       id="path52"
       style="fill:#0e558e;fill-opacity:1;stroke-width:0.499999;stroke-linecap:square"
       inkscape:transform-center-x="15.692664"
       inkscape:transform-center-y="-8.8891663"
       d="m 55.066923,46.681388 -6.674011,-4.459676 a 32,32 0 0 0 -4.778003,11.535213 l 7.90236,1.571998 a 24,24 0 0 1 3.549659,-8.647533 z" />
    <path
       id="path87"
       style="fill:#6393d2;fill-opacity:1;stroke-width:0.499999;stroke-linecap:square"
       inkscape:transform-center-x="15.692664"
       inkscape:transform-center-y="-8.8891663"
       d="m 55.066923,46.681388 a 24,24 0 0 0 -3.549659,8.647533 l 7.82743,1.557011 a 16,16 0 0 1 2.366779,-5.765023 z" />
    <path
       id="path54"
       style="fill:#9be1da;fill-opacity:1;stroke-width:0.499999;stroke-linecap:square"
       inkscape:transform-center-x="15.692662"
       inkscape:transform-center-y="8.8891637"
       d="m 51.517269,64.670987 -7.90236,1.571998 a 32,32 0 0 0 4.778003,11.535213 l 6.674011,-4.459676 a 24,24 0 0 1 -3.54965,-8.647536 z" />
    <path
       id="path100"
       style="fill:#579c96;fill-opacity:1;stroke-width:0.499999;stroke-linecap:square"
       inkscape:transform-center-x="15.692662"
       inkscape:transform-center-y="8.8891637"
       d="m 51.517269,64.670987 a 24,24 0 0 0 3.54965,8.647537 l 6.644556,-4.439522 a 16,16 0 0 1 -2.366779,-5.765024 z" />
    <path
       id="path55"
       style="fill:#b0e386;fill-opacity:1;stroke-width:0.499999;stroke-linecap:square"
       inkscape:transform-center-x="13.30359"
       inkscape:transform-center-y="13.303585"
       d="m 55.066923,73.318523 -6.674011,4.459675 a 32,32 0 0 0 8.828403,8.82892 l 4.459673,-6.67453 a 24,24 0 0 1 -6.614065,-6.614065 z" />
    <path
       id="path99"
       style="fill:#6d9e46;fill-opacity:1;stroke-width:0.499999;stroke-linecap:square"
       inkscape:transform-center-x="13.30359"
       inkscape:transform-center-y="13.303585"
       d="m 55.066923,73.318523 a 24,24 0 0 0 6.614065,6.614065 L 66.120512,73.28855 A 16,16 0 0 1 61.711479,68.879 Z" />
    <path
       id="path56"
       style="fill:#ffcb85;fill-opacity:1;stroke-width:0.499999;stroke-linecap:square"
       inkscape:transform-center-x="8.889165"
       inkscape:transform-center-y="15.69266"
       d="m 61.681506,79.933106 -4.459676,6.67401 a 32,32 0 0 0 11.535213,4.778003 l 1.571998,-7.90236 a 24,24 0 0 1 -8.647536,-3.54965 z" />
    <path
       id="path98"
       style="fill:#b88846;fill-opacity:1;stroke-width:0.499999;stroke-linecap:square"
       inkscape:transform-center-x="8.889165"
       inkscape:transform-center-y="15.69266"
       d="m 61.681506,79.933106 a 24,24 0 0 0 8.647536,3.54965 l 1.557011,-7.82743 A 16,16 0 0 1 66.12103,73.288547 Z" />
    <path
       id="path57"
       style="fill:#ffbdac;fill-opacity:1;stroke-width:0.499999;stroke-linecap:square"
       inkscape:transform-center-y="16.000104"
       d="m 70.329041,83.48276 -1.571998,7.90236 a 32,32 0 0 0 12.485543,0 l -1.57148,-7.90236 a 24,24 0 0 1 -4.671033,0.517281 24,24 0 0 1 -4.671032,-0.517281 z" />
    <path
       id="path97"
       style="fill:#cf7a6b;fill-opacity:1;stroke-width:0.499999;stroke-linecap:square"
       inkscape:transform-center-y="16.000104"
       d="m 70.329041,83.48276 a 24,24 0 0 0 4.671032,0.517281 24,24 0 0 0 4.671033,-0.517281 l -1.557011,-7.82743 a 16,16 0 0 1 -3.114022,0.344682 16,16 0 0 1 -3.114022,-0.344682 z" />
    <path
       id="path58"
       style="fill:#ffbbe1;fill-opacity:1;stroke-width:0.499999;stroke-linecap:square"
       inkscape:transform-center-x="-8.8891646"
       inkscape:transform-center-y="15.692663"
       d="m 79.671108,83.482764 1.571477,7.902353 A 32,32 0 0 0 92.778318,86.607119 L 88.31864,79.933105 a 24,24 0 0 1 -8.647528,3.549668 z" />
    <path
       id="path96"
       style="fill:#c8789c;fill-opacity:1;stroke-width:0.499999;stroke-linecap:square"
       inkscape:transform-center-x="-8.8891646"
       inkscape:transform-center-y="15.692663"
       d="m 79.671108,83.482764 a 24,24 0 0 0 8.647529,-3.549668 l -4.439523,-6.644555 a 16,16 0 0 1 -5.765023,2.366779 z" />
    <path
       id="path59"
       style="fill:#eec4ff;fill-opacity:1;stroke-width:0.499999;stroke-linecap:square"
       inkscape:transform-center-x="-13.303587"
       inkscape:transform-center-y="13.303586"
       d="m 88.31864,79.933105 4.459679,6.674015 a 32,32 0 0 0 8.828921,-8.828919 l -6.674016,-4.459679 a 24,24 0 0 1 -6.614584,6.614583 z" />
    <path
       id="path95"
       style="fill:#a881c9;fill-opacity:1;stroke-width:0.499999;stroke-linecap:square"
       inkscape:transform-center-x="-13.303587"
       inkscape:transform-center-y="13.303586"
       d="m 88.31864,79.933105 a 24,24 0 0 0 6.614584,-6.614583 l -6.644558,-4.439525 a 16,16 0 0 1 -4.40955,4.40955 z" />
    <path
       id="path60"
       style="fill:#aad6ff;fill-opacity:1;stroke-width:0.499999;stroke-linecap:square"
       inkscape:transform-center-x="-15.692661"
       inkscape:transform-center-y="8.8891629"
       d="m 94.933228,73.318524 6.674002,4.459673 a 32,32 0 0 0 4.77801,-11.535211 l -7.902882,-1.571999 a 24,24 0 0 1 -3.54913,8.647537 z" />
    <path
       id="path94"
       style="fill:#6393d2;fill-opacity:1;stroke-width:0.499999;stroke-linecap:square"
       inkscape:transform-center-x="-15.692661"
       inkscape:transform-center-y="8.8891629"
       d="m 94.933228,73.318524 a 24,24 0 0 0 3.54913,-8.647537 l -7.826906,-1.557009 a 16,16 0 0 1 -2.366743,5.765039 z" />
  </g>
  <g
     inkscape:groupmode="layer"
     id="layer4"
     inkscape:label="Color Circle Two">
    <path
       id="path102"
       style="fill:#aad6ff;fill-opacity:1;stroke:#7e7c7a;stroke-width:0.5;stroke-linecap:square;stroke-dasharray:none;stroke-opacity:1"
       inkscape:transform-center-x="-5"
       inkscape:transform-center-y="2.1695"
       d="m 61.596077,50.400413 7.234697,3.484025 a 31.999859,31.999859 0 0 0 3.1688,-13.883907 h -7.999507 a 24,24 0 0 1 -2.40399,10.399882 z" />
    <path
       id="path149"
       style="fill:#6393d2;fill-opacity:1;stroke:#7e7c7a;stroke-width:0.5;stroke-linecap:square;stroke-dasharray:none;stroke-opacity:1"
       inkscape:transform-center-x="-5"
       inkscape:transform-center-y="2.1695"
       d="m 61.596077,50.400413 a 24,24 0 0 0 2.40399,-10.399882 H 56.00004 a 16,16 0 0 1 -1.602477,6.933427 z" />
    <path
       id="path103"
       style="fill:#0d5c58;fill-opacity:1;stroke:#7e7c7a;stroke-width:0.5;stroke-linecap:square;stroke-dasharray:none;stroke-opacity:1"
       inkscape:transform-center-x="-5.0000443"
       inkscape:transform-center-y="-2.1693048"
       d="m 64.000067,40.00053 8.000037,1e-6 A 31.999859,31.999859 0 0 0 68.831294,26.11611 l -7.210927,3.472655 a 24,24 0 0 1 2.37971,10.411251 24,24 0 0 1 -1e-5,5.14e-4 z" />
    <path
       id="path148"
       style="fill:#579c96;fill-opacity:1;stroke:#7e7c7a;stroke-width:0.5;stroke-linecap:square;stroke-dasharray:none;stroke-opacity:1"
       inkscape:transform-center-x="-5.0000443"
       inkscape:transform-center-y="-2.1693048"
       d="m 64.000067,40.00053 a 24,24 0 0 0 1e-5,-5.14e-4 24,24 0 0 0 -2.37971,-10.411251 l -7.206784,3.470588 a 16,16 0 0 1 1.586457,6.940662 16,16 0 0 1 1e-5,5.19e-4 z" />
    <path
       id="path104"
       style="fill:#6d9e46;fill-opacity:1;stroke:#7e7c7a;stroke-width:0.5;stroke-linecap:square;stroke-dasharray:none;stroke-opacity:1"
       inkscape:transform-center-x="-4.504932"
       inkscape:transform-center-y="-3.9090629"
       d="M 61.620377,29.588766 A 24,24 0 0 0 54.96031,21.24095 l -4.986767,6.25285 a 16,16 0 0 1 4.44004,5.565556 z" />
    <path
       id="path147"
       style="fill:#2c5e03;fill-opacity:1;stroke:#7e7c7a;stroke-width:0.5;stroke-linecap:square;stroke-dasharray:none;stroke-opacity:1"
       inkscape:transform-center-x="-4.504932"
       inkscape:transform-center-y="-3.9090629"
       d="M 59.952257,14.981904 54.96031,21.24095 a 24,24 0 0 1 6.660067,8.347816 l 7.210927,-3.472658 A 31.999859,31.999859 0 0 0 59.952257,14.981904 Z" />
    <path
       id="path105"
       style="fill:#b88846;fill-opacity:1;stroke:#7e7c7a;stroke-width:0.5;stroke-linecap:square;stroke-dasharray:none;stroke-opacity:1"
       inkscape:transform-center-x="-3.1175847"
       inkscape:transform-center-y="-4.8745987"
       d="m 54.96084,21.240953 a 24,24 0 0 0 -9.621114,-4.632275 l -1.779737,7.797456 a 16,16 0 0 1 6.414074,3.088184 z" />
    <path
       id="path146"
       style="fill:#714a06;fill-opacity:1;stroke:#7e7c7a;stroke-width:0.5;stroke-linecap:square;stroke-dasharray:none;stroke-opacity:1"
       inkscape:transform-center-x="-3.1175847"
       inkscape:transform-center-y="-4.8745987"
       d="m 47.121526,8.802435 -1.7818,7.806243 a 24,24 0 0 1 9.621114,4.632275 l 4.991417,-6.25905 A 31.999859,31.999859 0 0 0 47.121526,8.802435 Z" />
    <path
       id="path106"
       style="fill:#cf7a6b;fill-opacity:1;stroke:#7e7c7a;stroke-width:0.5;stroke-linecap:square;stroke-dasharray:none;stroke-opacity:1"
       inkscape:transform-center-x="-0.00026349727"
       inkscape:transform-center-y="-5.0000207"
       d="m 45.339726,16.608676 a 24,24 0 0 0 -5.339727,-0.608747 24,24 0 0 0 -5.326287,0.660425 l 1.7756,7.77937 a 16,16 0 0 1 3.550687,-0.439766 16,16 0 0 1 3.55999,0.406176 z" />
    <path
       id="path145"
       style="fill:#873b30;fill-opacity:1;stroke:#7e7c7a;stroke-width:0.5;stroke-linecap:square;stroke-dasharray:none;stroke-opacity:1"
       inkscape:transform-center-x="-0.00026349727"
       inkscape:transform-center-y="-5.0000207"
       d="m 40.718819,8.008168 a 31.999859,31.999859 0 0 0 -2.15388,0.02429 31.999859,31.999859 0 0 0 -5.684914,0.769977 l 1.793687,7.85792 a 24,24 0 0 1 5.326287,-0.660425 24,24 0 0 1 5.339727,0.608747 l 1.7818,-7.80624 A 31.999859,31.999859 0 0 0 40.718819,8.008168 Z" />
    <path
       id="path107"
       style="fill:#c8789c;fill-opacity:1;stroke:#7e7c7a;stroke-width:0.5;stroke-linecap:square;stroke-dasharray:none;stroke-opacity:1"
       inkscape:transform-center-x="3.117276"
       inkscape:transform-center-y="-4.8747212"
       d="m 34.673192,16.660351 a 24,24 0 0 0 -9.605094,4.614191 l 4.977477,6.241994 a 16,16 0 0 1 6.403227,-3.07681 z" />
    <path
       id="path144"
       style="fill:#83395d;fill-opacity:1;stroke:#7e7c7a;stroke-width:0.5;stroke-linecap:square;stroke-dasharray:none;stroke-opacity:1"
       inkscape:transform-center-x="3.117276"
       inkscape:transform-center-y="-4.8747212"
       d="m 32.880025,8.801918 a 31.999859,31.999859 0 0 0 -12.830734,6.178953 l 5.018807,6.293671 a 24,24 0 0 1 9.605094,-4.614191 z" />
    <path
       id="path108"
       style="fill:#a881c9;fill-opacity:1;stroke:#7e7c7a;stroke-width:0.5;stroke-linecap:square;stroke-dasharray:none;stroke-opacity:1"
       inkscape:transform-center-x="4.5047398"
       inkscape:transform-center-y="-3.9093226"
       d="m 25.068098,21.27454 a 24,24 0 0 0 -6.663667,8.324559 l 7.198517,3.46697 a 16,16 0 0 1 4.442627,-5.54953 z" />
    <path
       id="path143"
       style="fill:#664385;fill-opacity:1;stroke:#7e7c7a;stroke-width:0.5;stroke-linecap:square;stroke-dasharray:none;stroke-opacity:1"
       inkscape:transform-center-x="4.5047398"
       inkscape:transform-center-y="-3.9093226"
       d="m 20.049291,14.980869 a 31.999859,31.999859 0 0 0 -8.879564,11.133686 l 7.234704,3.484544 a 24,24 0 0 1 6.663667,-8.324559 z" />
    <path
       id="path109"
       style="fill:#0e558e;fill-opacity:1;stroke:#7e7c7a;stroke-width:0.5;stroke-linecap:square;stroke-dasharray:none;stroke-opacity:1"
       inkscape:transform-center-x="5.0000019"
       inkscape:transform-center-y="-2.1696502"
       d="m 18.404431,29.598582 -7.234704,-3.484025 a 31.999859,31.999859 0 0 0 -3.16982,13.883907 l 8.000027,5.16e-4 a 24,24 0 0 1 2.404497,-10.400398 z" />
    <path
       id="path142"
       style="fill:#6393d2;fill-opacity:1;stroke:#7e7c7a;stroke-width:0.5;stroke-linecap:square;stroke-dasharray:none;stroke-opacity:1"
       inkscape:transform-center-x="5.0000019"
       inkscape:transform-center-y="-2.1696502"
       d="M 18.404431,29.598582 A 24,24 0 0 0 15.999934,39.99898 l 8.000014,10e-7 a 16,16 0 0 1 1.603,-6.933428 z" />
    <path
       id="path110"
       style="fill:#9be1da;fill-opacity:1;stroke:#7e7c7a;stroke-width:0.5;stroke-linecap:square;stroke-dasharray:none;stroke-opacity:1"
       inkscape:transform-center-x="5.0000443"
       inkscape:transform-center-y="2.1689792"
       d="m 15.999924,39.998979 -8.000027,-5.17e-4 a 31.999859,31.999859 0 0 0 3.16829,13.884428 l 7.235214,-3.483509 a 24,24 0 0 1 -2.403477,-10.39937 24,24 0 0 1 0,-10e-4 z" />
    <path
       id="path155"
       style="fill:#579c96;fill-opacity:1;stroke:#7e7c7a;stroke-width:0.5;stroke-linecap:square;stroke-dasharray:none;stroke-opacity:1"
       inkscape:transform-center-x="5.0000443"
       inkscape:transform-center-y="2.1689792"
       d="m 15.999924,39.998979 a 24,24 0 0 0 0,0.001 24,24 0 0 0 2.403477,10.39937 l 7.198517,-3.466452 a 16,16 0 0 1 -1.60197,-6.932913 16,16 0 0 1 0,-5.21e-4 z" />
    <path
       id="path111"
       style="fill:#b0e386;fill-opacity:1;stroke:#7e7c7a;stroke-width:0.5;stroke-linecap:square;stroke-dasharray:none;stroke-opacity:1"
       inkscape:transform-center-x="4.5050058"
       inkscape:transform-center-y="3.9089592"
       d="m 18.403401,50.39938 -7.235224,3.483505 a 31.999859,31.999859 0 0 0 8.879044,11.134725 l 5.019327,-6.293157 A 24,24 0 0 1 18.403401,50.39938 Z" />
    <path
       id="path154"
       style="fill:#6d9e46;fill-opacity:1;stroke:#7e7c7a;stroke-width:0.5;stroke-linecap:square;stroke-dasharray:none;stroke-opacity:1"
       inkscape:transform-center-x="4.5050058"
       inkscape:transform-center-y="3.9089592"
       d="m 18.403401,50.39938 a 24,24 0 0 0 6.663147,8.325073 l 4.977477,-6.241479 a 16,16 0 0 1 -4.442107,-5.55005 z" />
    <path
       id="path112"
       style="fill:#ffcb85;fill-opacity:1;stroke:#7e7c7a;stroke-width:0.5;stroke-linecap:square;stroke-dasharray:none;stroke-opacity:1"
       inkscape:transform-center-x="3.1177165"
       inkscape:transform-center-y="4.8745642"
       d="m 25.066558,58.724454 -5.019337,6.293155 a 31.999859,31.999859 0 0 0 12.830214,6.179467 l 1.793687,-7.857402 a 24,24 0 0 1 -9.604564,-4.61522 z" />
    <path
       id="path153"
       style="fill:#b88846;fill-opacity:1;stroke:#7e7c7a;stroke-width:0.5;stroke-linecap:square;stroke-dasharray:none;stroke-opacity:1"
       inkscape:transform-center-x="3.1177165"
       inkscape:transform-center-y="4.8745642"
       d="m 25.066558,58.724454 a 24,24 0 0 0 9.604564,4.61522 l 1.77612,-7.779887 a 16,16 0 0 1 -6.403217,-3.076813 z" />
    <path
       id="path113"
       style="fill:#ffbdac;fill-opacity:1;stroke:#7e7c7a;stroke-width:0.5;stroke-linecap:square;stroke-dasharray:none;stroke-opacity:1"
       inkscape:transform-center-x="0.00059460707"
       inkscape:transform-center-y="5.0000232"
       d="m 34.671132,63.339675 -1.793697,7.857404 a 31.999859,31.999859 0 0 0 14.240991,0.001 l -1.79318,-7.857915 a 24,24 0 0 1 -5.325247,0.659913 24,24 0 0 1 -5.328867,-0.660429 z" />
    <path
       id="path152"
       style="fill:#cf7a6b;fill-opacity:1;stroke:#7e7c7a;stroke-width:0.5;stroke-linecap:square;stroke-dasharray:none;stroke-opacity:1"
       inkscape:transform-center-x="0.00059460707"
       inkscape:transform-center-y="5.0000232"
       d="m 34.671132,63.339675 a 24,24 0 0 0 5.328867,0.660429 24,24 0 0 0 5.325247,-0.659913 l -1.775077,-7.779884 a 16,16 0 0 1 -3.55017,0.439768 16,16 0 0 1 -3.552757,-0.440292 z" />
    <path
       id="path114"
       style="fill:#ffbbe1;fill-opacity:1;stroke:#7e7c7a;stroke-width:0.5;stroke-linecap:square;stroke-dasharray:none;stroke-opacity:1"
       inkscape:transform-center-x="-3.1171513"
       inkscape:transform-center-y="4.874762"
       d="m 45.325766,63.340188 1.79318,7.857925 A 31.999859,31.999859 0 0 0 59.949677,65.020191 L 54.93086,58.726006 a 24,24 0 0 1 -9.605094,4.614182 z" />
    <path
       id="path151"
       style="fill:#c8789c;fill-opacity:1;stroke:#7e7c7a;stroke-width:0.5;stroke-linecap:square;stroke-dasharray:none;stroke-opacity:1"
       inkscape:transform-center-x="-3.1171513"
       inkscape:transform-center-y="4.874762"
       d="m 45.325766,63.340188 a 24,24 0 0 0 9.605094,-4.614182 l -4.976437,-6.241997 a 16,16 0 0 1 -6.403734,3.076297 z" />
    <path
       id="path115"
       style="fill:#eec4ff;fill-opacity:1;stroke:#7e7c7a;stroke-width:0.5;stroke-linecap:square;stroke-dasharray:none;stroke-opacity:1"
       inkscape:transform-center-x="-4.504676"
       inkscape:transform-center-y="3.909428"
       d="m 54.93138,58.725486 5.018807,6.294705 a 31.999859,31.999859 0 0 0 8.879567,-11.133684 l -7.234707,-3.484544 a 24,24 0 0 1 -6.663667,8.323523 z" />
    <path
       id="path150"
       style="fill:#a881c9;fill-opacity:1;stroke:#7e7c7a;stroke-width:0.5;stroke-linecap:square;stroke-dasharray:none;stroke-opacity:1"
       inkscape:transform-center-x="-4.504676"
       inkscape:transform-center-y="3.909428"
       d="m 54.93138,58.725486 a 24,24 0 0 0 6.663667,-8.323523 l -7.197994,-3.466969 a 16,16 0 0 1 -4.44263,5.549014 z" />
  </g>
</svg>
